<?xml version="1.0" encoding="utf-8"?>
<!-- Generator: Adobe Illustrator 15.0.0, SVG Export Plug-In . SVG Version: 6.00 Build 0)  -->
<!DOCTYPE svg PUBLIC "-//W3C//DTD SVG 1.1//EN" "http://www.w3.org/Graphics/SVG/1.1/DTD/svg11.dtd">
<svg version="1.1" id="Layer_1" xmlns="http://www.w3.org/2000/svg" xmlns:xlink="http://www.w3.org/1999/xlink" x="0px" y="0px"
	 width="928.571px" height="292.208px" viewBox="0 0 928.571 292.208" enable-background="new 0 0 928.571 292.208"
	 xml:space="preserve">
<g>
	<linearGradient id="SVGID_1_" gradientUnits="userSpaceOnUse" x1="5.7793" y1="192.1348" x2="296.3623" y2="192.1348">
		<stop  offset="0" style="stop-color:#FF0000"/>
		<stop  offset="1" style="stop-color:#920B00"/>
	</linearGradient>
	<path fill="url(#SVGID_1_)" d="M5.779,97.218c0,0,54.088,189.834,290.583,189.834H5.779V97.218z"/>
	<g>
		<linearGradient id="SVGID_2_" gradientUnits="userSpaceOnUse" x1="282.2251" y1="109.4771" x2="27.6879" y2="109.4771">
			<stop  offset="0" style="stop-color:#FF0000"/>
			<stop  offset="1" style="stop-color:#920B00"/>
		</linearGradient>
		<path fill="url(#SVGID_2_)" d="M296.219,8.052H5.779v89.166c0,0,17.629,61.177,76.761,113.685
			C66.518,193.985,56.685,171.143,56.685,146c0-52.128,42.257-94.383,94.386-94.383c33.283,0,62.54,17.716,79.345,43.738
			C275.024,56.673,294.384,13.052,296.219,8.052z"/>
		<linearGradient id="SVGID_3_" gradientUnits="userSpaceOnUse" x1="230.416" y1="94.8652" x2="230.416" y2="94.8652">
			<stop  offset="0" style="stop-color:#FF0000"/>
			<stop  offset="1" style="stop-color:#920B00"/>
		</linearGradient>
		<path fill="url(#SVGID_3_)" d="M230.416,94.865"/>
		<linearGradient id="SVGID_4_" gradientUnits="userSpaceOnUse" x1="110.729" y1="6.8945" x2="296.3622" y2="6.8945">
			<stop  offset="0" style="stop-color:#FF0000"/>
			<stop  offset="1" style="stop-color:#920B00"/>
		</linearGradient>
		<path fill="url(#SVGID_4_)" d="M296.219,7.072h0.143V6.717C296.362,6.717,296.317,6.839,296.219,7.072z"/>
	</g>
	<linearGradient id="SVGID_5_" gradientUnits="userSpaceOnUse" x1="101.0024" y1="-5.1328" x2="101.0024" y2="265.2712">
		<stop  offset="0" style="stop-color:#FF0000"/>
		<stop  offset="1" style="stop-color:#920B00"/>
	</linearGradient>
	<path fill="url(#SVGID_5_)" d="M195.779,8.052h-190v89.166c0,0,8.453,29.31,33.259,64.767
		c11.034,15.769,25.298,32.754,43.502,48.918C66.518,193.985,56.685,171.143,56.685,146c0-4.362,0.303-8.653,0.877-12.86
		c0.696-4.758,1.909-10.6,4.012-17.196c10.2-31.996,40.802-81.01,134.652-108.381"/>
	<path fill="none" stroke="#FF7069" stroke-miterlimit="10" d="M82.541,210.902C66.518,193.985,56.685,171.143,56.685,146
		c0-4.362,0.303-8.653,0.877-12.86c0.696-4.758,1.909-10.6,4.012-17.196c10.2-31.996,41.252-81.5,135.099-108.872"/>
	<linearGradient id="SVGID_6_" gradientUnits="userSpaceOnUse" x1="100.7793" y1="8.0518" x2="100.7793" y2="8.0518">
		<stop  offset="0" style="stop-color:#FF0000"/>
		<stop  offset="1" style="stop-color:#920B00"/>
	</linearGradient>
	<line fill="url(#SVGID_6_)" x1="195.779" y1="8.052" x2="5.779" y2="8.052"/>
	<linearGradient id="SVGID_7_" gradientUnits="userSpaceOnUse" x1="100.6094" y1="78.3848" x2="351.9246" y2="78.3848">
		<stop  offset="0" style="stop-color:#FF0000"/>
		<stop  offset="1" style="stop-color:#920B00"/>
	</linearGradient>
	<path fill="url(#SVGID_7_)" d="M293.779,6.717c0,0-47.61,123.334-186.895,143.334h186.895V6.717z"/>
	<path fill="none" stroke="#FF7069" stroke-miterlimit="10" d="M296.362,6.717c0,0-50.193,125.498-189.478,143.528"/>
	<linearGradient id="SVGID_8_" gradientUnits="userSpaceOnUse" x1="244.7534" y1="149.8921" x2="244.7534" y2="149.8921">
		<stop  offset="0" style="stop-color:#FF0000"/>
		<stop  offset="1" style="stop-color:#920B00"/>
	</linearGradient>
	<path fill="url(#SVGID_8_)" d="M244.753,149.892"/>
	<path fill="none" stroke="#FF7069" stroke-miterlimit="10" d="M5.779,97.218c0,0,8.453,29.31,33.259,64.767
		c11.034,15.769,25.298,32.754,43.502,48.918"/>
</g>
<g>
	<path fill="#E10000" d="M317.141,172.506h14.526v20.004c11.508-15.299,25.477-22.95,41.897-22.95
		c8.421,0,15.999,2.281,22.738,6.844c6.736,4.56,11.506,10.526,14.314,17.895c2.808,7.367,4.212,18.211,4.212,32.524V284.3h-14.316
		v-53.266c0-13.053-0.598-21.894-1.79-26.525c-1.194-4.634-3.018-8.56-5.473-11.789c-2.458-3.228-5.578-5.686-9.368-7.371
		c-3.79-1.683-8.388-2.526-13.79-2.526c-5.406,0-10.705,1.337-15.896,4.002c-5.194,2.668-9.616,6.389-13.263,11.158
		c-3.652,4.772-6.107,9.683-7.368,14.738c-1.264,5.051-1.897,15.229-1.897,30.525V284.3h-14.526V172.506z"/>
	<path fill="#E10000" d="M472.72,266.615c0,3.79,0.491,6.036,1.476,6.736c0.979,0.703,3.506,1.054,7.578,1.054h8.634v12.209
		c-5.897,0.984-10.526,1.474-13.895,1.474c-6.317,0-10.951-1.54-13.897-4.63c-2.949-3.086-4.421-7.928-4.421-14.525v-84.215h-19.79
		v-12.212h19.79v-43.159h14.526v43.159h22.738v12.212H472.72V266.615z"/>
	<path fill="#E10000" d="M511.457,172.506h14.738v16.212c3.929-6.596,7.752-11.438,11.475-14.526
		c3.717-3.085,7.857-4.632,12.422-4.632c4.558,0,9.158,1.264,13.789,3.79l-7.58,12.209c-2.107-1.261-4.283-1.893-6.526-1.893
		c-4.353,0-8.457,2.248-12.316,6.736c-3.861,4.493-6.703,10.283-8.526,17.367c-1.826,7.089-2.736,19.968-2.736,38.635V284.3h-14.738
		V172.506z"/>
	<path fill="#E10000" d="M691.672,172.506V284.3h-14.106v-19.157c-12.771,15.298-27.369,22.945-43.79,22.945
		c-16.422,0-30.282-5.857-41.579-17.58c-11.301-11.716-16.947-25.682-16.947-41.893c0-16.212,5.683-30.108,17.053-41.686
		c11.367-11.58,24.979-17.37,40.844-17.37c18.242,0,33.052,7.79,44.42,23.369v-20.423H691.672z M678.409,228.93
		c0-12.771-4.283-23.544-12.844-32.315c-8.562-8.771-19.052-13.16-31.474-13.16c-12.421,0-22.916,4.526-31.474,13.58
		c-8.564,9.053-12.844,19.758-12.844,32.105c0,12.354,4.351,23.055,13.054,32.107c8.702,9.051,19.121,13.578,31.264,13.578
		c12.138,0,22.56-4.349,31.265-13.054C674.057,253.071,678.409,242.123,678.409,228.93z"/>
	<path fill="#E10000" d="M715.041,172.506h82.107l-63.369,98.951h61.265V284.3h-86.107l63.37-99.16h-57.266V172.506z"/>
	<path fill="#E10000" d="M907.677,248.09l12.21,6.314c-12.071,22.458-29.896,33.684-53.474,33.684
		c-16.845,0-30.737-5.788-41.688-17.368c-10.946-11.579-16.421-25.507-16.421-41.79c0-16.278,5.506-30.244,16.525-41.896
		c11.02-11.648,24.633-17.475,40.845-17.475c16.211,0,29.821,5.406,40.844,16.211c11.018,10.811,16.738,25.546,17.157,44.213
		H823.043c0.419,13.475,4.664,24.315,12.738,32.527c8.066,8.209,17.855,12.314,29.366,12.314
		C884.098,274.825,898.271,265.915,907.677,248.09z M907.677,217.562c-1.969-10.664-6.879-19.019-14.738-25.052
		c-7.861-6.035-16.914-9.056-27.159-9.056c-21.053,0-34.809,11.37-41.264,34.107H907.677z"/>
</g>
</svg>
